<svg width="90" height="81" viewBox="0 0 90 81" fill="none" xmlns="http://www.w3.org/2000/svg">
<path fill-rule="evenodd" clip-rule="evenodd" d="M81.0404 28.7806C83.3503 45.8837 73.1446 67.1574 69.411 68.2099C69.411 68.2099 53.5624 66.1943 51.1497 66.3431C50.4114 66.3871 49.8134 66.6841 49.2609 67.0813C47.9929 67.9899 46.9517 69.4169 45.0642 69.527C42.3499 69.6918 13.8223 66.3401 13.8223 66.3401L11.375 66.0341L10.3976 61.9678L12.4223 61.0945C14.2918 60.0728 15.7207 58.5554 16.8068 56.9086C17.2335 56.2675 17.604 55.6074 17.9292 54.953C19.6965 51.4018 20.1315 47.9124 20.1315 47.9124C17.8908 41.5529 8.35477 26.0677 8.0559 25.5883C8.0503 25.5749 8.0503 25.5749 8.0503 25.5749L2.68125 24.6178L1.74246 24.8366L0.0321165 17.4991L1.34747 17.0472C20.7378 19.7121 48.5278 20.1949 48.5278 20.1949C51.7511 18.4957 55.4421 17.5565 55.4421 17.5565C64.3634 19.1654 79.2891 21.9328 79.2891 21.9328C80.1515 24.0905 80.7156 26.3941 81.0404 28.7806Z" fill="url(#paint0_linear_399_20223)"/>
<path opacity="0.5" fill-rule="evenodd" clip-rule="evenodd" d="M69.4084 68.2099C69.4084 68.2099 66.4148 65.106 64.3516 62.4551C64.3516 62.4551 67.6091 64.8424 70.2817 65.7559L69.4084 68.2099Z" fill="#591F46"/>
<path opacity="0.5" fill-rule="evenodd" clip-rule="evenodd" d="M30.7933 53.178L21.8456 48.1282L17.9285 54.953C19.6935 51.4023 20.1308 47.9124 20.1308 47.9124C17.8896 41.5505 8.3541 26.0677 8.05469 25.5859C8.32357 25.831 25.4936 42.1245 30.7933 53.178Z" fill="#591F46"/>
<path opacity="0.5" fill-rule="evenodd" clip-rule="evenodd" d="M81.0388 28.7803C81.0376 28.7855 81.0387 28.7902 81.0374 28.7954C81.0374 28.7954 74.7108 31.8213 73.3113 33.2432C71.9337 34.6428 67.0704 47.5062 66.9174 47.9063C66.9895 47.5078 69.3441 34.7195 72.104 30.3139C74.9087 25.8364 79.2875 21.9325 79.2875 21.9325C80.15 24.0902 80.714 26.3939 81.0388 28.7803Z" fill="#591F46"/>
<path fill-rule="evenodd" clip-rule="evenodd" d="M40.3973 44.2859L41.1061 49.2912L43.237 49.1589L42.8506 44.6595L43.915 44.6945L44.5868 48.8862L47.5481 49.6437L47.3231 44.6437L48.1895 44.5895L48.8119 48.8123L50.7851 48.6897L50.1333 43.8656C50.1333 43.8656 53.5657 44.299 53.6799 42.2436C54.0178 36.0241 57.9641 32.6839 54.3622 26.8756C53.637 25.7077 51.4202 24.0036 49.2749 23.3562L48.3742 25.1642C47.2121 24.9746 45.94 23.2669 44.7301 23.3052C40.3231 23.4436 35.2063 25.2272 34.246 29.7796C32.9369 35.9939 36.2675 37.1209 38.0302 43.2151C38.336 44.2838 40.3973 44.2859 40.3973 44.2859ZM46.0664 36.3264C46.1436 35.2103 48.8478 32.1818 50.0922 32.0173C51.3315 31.8515 52.7649 33.2582 53.163 34.9874C53.5648 36.7108 51.0257 39.6663 49.2878 39.6677C47.5485 39.6742 45.9958 37.3967 46.0664 36.3264ZM47.7733 41.9166C47.3389 42.4191 46.2368 42.0113 46.2368 42.0113L45.6574 40.6345L45.3856 42.025C45.3856 42.025 44.7094 42.7366 43.7856 42.164C43.2984 41.859 44.57 38.9379 45.4005 38.8355C46.2276 38.7289 48.2118 41.4105 47.7733 41.9166ZM37.2705 35.9736C37.3556 34.2155 38.519 32.6467 39.7746 32.6569C41.0308 32.6694 44.2554 35.3278 44.5276 36.4216C44.797 37.4717 43.6703 39.9159 41.9505 40.1222C40.2324 40.3356 37.1914 37.7254 37.2705 35.9736Z" fill="url(#paint1_linear_399_20223)"/>
<path fill-rule="evenodd" clip-rule="evenodd" d="M59.3947 46.2107C58.3517 44.9052 58.1129 44.7786 57.4764 44.3188C56.8404 43.8614 55.0594 45.3894 55.0885 46.2961C55.1177 47.2028 55.0113 47.7816 55.0113 47.7816L48.0702 51.4037L45.9692 52.4992L45.2096 52.8953L40.5433 50.9496L37.0383 48.3984C37.0383 48.3984 36.1723 45.3698 34.0516 45.1871C32.5391 45.057 32.0953 46.8077 33.8759 49.2709C33.7205 50.9494 33.4639 52.0138 33.6005 52.8216C33.7347 53.6299 35.9995 53.2793 36.5954 52.6775C37.1913 52.0757 37.0069 51.4957 37.0069 51.4957L42.8494 54.1251L37.0215 57.1676C37.0215 57.1676 35.3171 55.3588 34.6961 55.4937C34.0751 55.6286 33.0509 56.6011 33.2441 57.2923C33.2903 57.4588 33.7922 57.785 34.0027 58.7725C34.1219 59.3258 33.9855 60.1455 33.8425 60.7574C33.7195 61.2859 33.9768 61.8513 34.4448 62.0845C35.1147 62.4232 36.0207 62.7291 36.5175 62.2514C37.3635 61.4337 37.2629 59.9355 37.2629 59.9355L45.5036 55.3185L46.7637 55.8866L50.5662 58.9323L56.6811 60.3533C56.6811 60.3533 56.6493 62.8893 57.1754 63.3084C57.7033 63.7246 59.2743 63.3978 59.4167 63.3326C59.5614 63.2668 59.3683 62.5756 59.89 61.772C60.4142 60.9678 62.0793 60.2842 62.0793 60.2842C62.0793 60.2842 61.6429 57.6726 60.4921 57.51C59.3413 57.3473 58.3946 58.3879 58.3946 58.3879L49.2527 55.1144L47.86 53.9986L53.7355 50.7061L56.8285 49.1554C56.8285 49.1554 59.1917 50.5053 60.673 48.9166C61.7293 47.7865 60.6401 47.772 59.3947 46.2107Z" fill="url(#paint2_linear_399_20223)"/>
<path opacity="0.5" fill-rule="evenodd" clip-rule="evenodd" d="M45.2437 41.7341C44.8117 48.7855 49.4324 65.7144 49.4324 65.7144L49.2611 67.0815C47.9926 67.9878 46.9536 69.4142 45.0644 69.5272L44.0327 44.4613L42.4572 48.4554C41.9831 39.0692 48.528 20.1951 48.528 20.1951C51.7513 18.4958 55.4423 17.5567 55.4423 17.5567C55.4423 17.5567 45.6756 34.6827 45.2437 41.7341Z" fill="#591F46"/>
<defs>
<linearGradient id="paint0_linear_399_20223" x1="7.40903" y1="49.149" x2="81.8902" y2="31.7878" gradientUnits="userSpaceOnUse">
<stop offset="0.00837989" stop-color="#47223C"/>
<stop offset="1" stop-color="#8B6A95"/>
</linearGradient>
<linearGradient id="paint1_linear_399_20223" x1="60.1898" y1="66.7668" x2="42.5712" y2="26.8055" gradientUnits="userSpaceOnUse">
<stop stop-color="#C79296"/>
<stop offset="1" stop-color="#FFF4D0"/>
</linearGradient>
<linearGradient id="paint2_linear_399_20223" x1="57.7533" y1="69.2297" x2="29.6572" y2="35.1868" gradientUnits="userSpaceOnUse">
<stop stop-color="#C79296"/>
<stop offset="1" stop-color="#FFF4D0"/>
</linearGradient>
</defs>
</svg>
